<svg width="32" height="32" viewBox="0 0 32 32" fill="none" xmlns="http://www.w3.org/2000/svg">
<path d="M19.5761 6.38501H12.423C11.8739 6.38554 11.3475 6.6039 10.9592 6.99218C10.5709 7.38045 10.3526 7.90691 10.3521 8.45601V15.605C10.3526 16.1541 10.5709 16.6806 10.9592 17.0688C11.3475 17.4571 11.8739 17.6755 12.423 17.676H19.5761C20.1252 17.6755 20.6516 17.4571 21.0399 17.0688C21.4282 16.6806 21.6465 16.1541 21.6471 15.605V8.45601C21.6465 7.90691 21.4282 7.38045 21.0399 6.99218C20.6516 6.6039 20.1252 6.38554 19.5761 6.38501V6.38501ZM15.9991 15.75C15.2637 15.75 14.5449 15.532 13.9334 15.1234C13.322 14.7149 12.8455 14.1342 12.5641 13.4548C12.2827 12.7755 12.209 12.0279 12.3525 11.3067C12.4959 10.5854 12.8501 9.92296 13.37 9.40299C13.89 8.88302 14.5525 8.52891 15.2737 8.38545C15.9949 8.24199 16.7425 8.31562 17.4219 8.59703C18.1012 8.87843 18.6819 9.35498 19.0905 9.9664C19.499 10.5778 19.7171 11.2967 19.7171 12.032C19.716 13.0178 19.3239 13.9628 18.6269 14.6599C17.9299 15.3569 16.9848 15.749 15.9991 15.75V15.75ZM19.837 9.08201C19.663 9.08201 19.4929 9.0304 19.3481 8.9337C19.2034 8.83701 19.0906 8.69957 19.024 8.53877C18.9574 8.37797 18.94 8.20103 18.974 8.03033C19.0079 7.85963 19.0917 7.70283 19.2148 7.57976C19.3379 7.45669 19.4947 7.37287 19.6654 7.33892C19.8361 7.30496 20.013 7.32239 20.1738 7.389C20.3346 7.4556 20.472 7.56839 20.5687 7.71311C20.6654 7.85782 20.7171 8.02796 20.7171 8.20201C20.7171 8.43549 20.6244 8.65943 20.4594 8.82462C20.2944 8.98981 20.0705 9.08274 19.837 9.08301V9.08201Z" fill="#707070"/>
<path d="M16.004 9.88501C15.5794 9.88501 15.1643 10.0109 14.8112 10.2468C14.4581 10.4828 14.1829 10.8181 14.0204 11.2104C13.8579 11.6027 13.8154 12.0344 13.8982 12.4509C13.9811 12.8673 14.1856 13.2499 14.4858 13.5502C14.7861 13.8504 15.1687 14.0549 15.5851 14.1378C16.0016 14.2206 16.4333 14.1781 16.8256 14.0156C17.2179 13.8531 17.5532 13.5779 17.7892 13.2248C18.0251 12.8717 18.151 12.4566 18.151 12.032C18.1502 11.4628 17.9237 10.9172 17.5213 10.5147C17.1188 10.1123 16.5732 9.8858 16.004 9.88501Z" fill="#707070"/>
<g filter="url(#filter0_d_113_5499)">
<path d="M16 0C13.6266 0 11.3066 0.703788 9.33316 2.02236C7.35977 3.34094 5.8217 5.21509 4.91345 7.4078C4.0052 9.60051 3.76756 12.0133 4.23058 14.3411C4.6936 16.6689 5.83649 18.8071 7.51472 20.4853C9.19295 22.1635 11.3312 23.3064 13.6589 23.7694C15.9867 24.2324 18.3995 23.9948 20.5922 23.0866C22.7849 22.1783 24.6591 20.6402 25.9776 18.6668C27.2962 16.6935 28 14.3734 28 12C28 8.8174 26.7357 5.76516 24.4853 3.51472C22.2349 1.26428 19.1826 0 16 0ZM23.218 15.609C23.2169 16.5746 22.8329 17.5003 22.1501 18.1831C21.4673 18.8659 20.5416 19.2499 19.576 19.251H12.423C11.4574 19.2499 10.5317 18.8659 9.84889 18.1831C9.16611 17.5003 8.78206 16.5746 8.78101 15.609V8.456C8.78206 7.49041 9.16611 6.56466 9.84889 5.88189C10.5317 5.19911 11.4574 4.81506 12.423 4.814H19.576C20.5416 4.81506 21.4673 5.19911 22.1501 5.88189C22.8329 6.56466 23.2169 7.49041 23.218 8.456V15.609Z" fill="#707070"/>
</g>
<defs>
<filter id="filter0_d_113_5499" x="0" y="0" width="32" height="32" filterUnits="userSpaceOnUse" color-interpolation-filters="sRGB">
<feFlood flood-opacity="0" result="BackgroundImageFix"/>
<feColorMatrix in="SourceAlpha" type="matrix" values="0 0 0 0 0 0 0 0 0 0 0 0 0 0 0 0 0 0 127 0" result="hardAlpha"/>
<feOffset dy="4"/>
<feGaussianBlur stdDeviation="2"/>
<feComposite in2="hardAlpha" operator="out"/>
<feColorMatrix type="matrix" values="0 0 0 0 0 0 0 0 0 0 0 0 0 0 0 0 0 0 0.25 0"/>
<feBlend mode="normal" in2="BackgroundImageFix" result="effect1_dropShadow_113_5499"/>
<feBlend mode="normal" in="SourceGraphic" in2="effect1_dropShadow_113_5499" result="shape"/>
</filter>
</defs>
</svg>
